<svg xmlns="http://www.w3.org/2000/svg" fill="none" viewBox="0 0 32 32" height="32" width="32">&#xa;<rect fill="#5282FF" rx="16" height="32" width="32"/>&#xa;<path fill="white" d="M8 20.002V11H10.15C11.175 11 11.907 11.228 12.343 11.685C12.781 12.143 13 12.907 13 13.978V16.498C13.004 17.852 12.812 18.773 12.425 19.264C12.04 19.754 11.311 20.001 10.24 20.001L8 20.002ZM14 20.002V11H16L17.692 17.597V11H19V20.001H17L15.31 13.339V20.001L14 20.002ZM20.455 19.415C20.152 19.024 20 18.386 20 17.504V17.162H21.288V17.422C21.281 17.844 21.338 18.16 21.458 18.37C21.576 18.581 21.758 18.686 22.001 18.686C22.1073 18.6917 22.213 18.6681 22.3068 18.6178C22.4006 18.5676 22.4789 18.4926 22.533 18.401C22.651 18.211 22.708 17.925 22.708 17.541C22.708 17.256 22.638 17.011 22.493 16.803C22.352 16.597 22.104 16.378 21.748 16.147C21.128 15.746 20.693 15.353 20.447 14.963C20.199 14.58 20.075 14.103 20.075 13.533C20.075 12.687 20.241 12.053 20.573 11.632C20.907 11.211 21.407 11 22.075 11C22.761 11 23.245 11.196 23.528 11.588C23.795 11.96 23.924 12.558 23.921 13.384L23.923 13.576V13.836H22.635V13.576C22.641 13.114 22.599 12.788 22.508 12.597C22.418 12.408 22.26 12.313 22.035 12.313C21.9354 12.3074 21.8361 12.3288 21.7477 12.3752C21.6593 12.4215 21.5851 12.4909 21.533 12.576C21.421 12.752 21.367 13.015 21.367 13.366C21.367 13.638 21.432 13.871 21.565 14.066C21.693 14.26 21.923 14.462 22.252 14.672C22.899 15.094 23.352 15.505 23.611 15.905C23.871 16.306 24 16.797 24 17.38C24 18.254 23.833 18.91 23.501 19.345C23.168 19.781 22.668 19.999 22 19.999C21.272 19.999 20.756 19.804 20.455 19.415ZM11.1 18.295C11.276 18.058 11.365 17.602 11.365 16.926V13.954C11.365 13.344 11.267 12.925 11.068 12.696C10.871 12.466 10.508 12.352 9.98 12.352H9.636V18.648H10.066C10.577 18.648 10.923 18.53 11.1 18.296V18.295Z"/>&#xa;</svg>