<svg xmlns="http://www.w3.org/2000/svg" width="32" height="32" viewBox="0 0 32 32" fill="none">&#xa;<path d="M0 16C0 7.16344 7.16344 0 16 0V0C24.8366 0 32 7.16344 32 16V16C32 24.8366 24.8366 32 16 32V32C7.16344 32 0 24.8366 0 16V16Z" fill="#5282FF"/>&#xa;<path d="M11.995 24L7.00098 17.738L8.78198 9.927L16 6.453L23.218 9.928L24.999 17.739L20.005 24H11.995ZM20 13.196L15.999 10.899L12 13.196V18.1L16 20.401L20 18.1V13.196ZM18.78 13.896H18.787L16 15.499L13.214 13.895H13.219L15.999 12.299L18.78 13.896Z" fill="white"/>&#xa;</svg>