<svg xmlns="http://www.w3.org/2000/svg" width="32" height="32" viewBox="0 0 32 32" fill="none">&#xa;<path d="M0 16C0 7.16344 7.16344 0 16 0V0C24.8366 0 32 7.16344 32 16V16C32 24.8366 24.8366 32 16 32V32C7.16344 32 0 24.8366 0 16V16Z" fill="#5282FF"/>&#xa;<path fill-rule="evenodd" clip-rule="evenodd" d="M13 8H18C21.3 8 24 10.7 24 14V24H20V20H22V19H18.6C15.5 19 13 16.5 13 13.4V8ZM19 17H21V15H19V17ZM12 9.09998V13.4C12 16.8 14.6 19.7 18 20.1V20.6C18 22 15.8 23.1 13 23.1C10.2 23.1 8 22 8 20.6V11.6C8 10.3 9.7 9.29998 12 9.09998Z" fill="white"/>&#xa;</svg>