<svg xmlns="http://www.w3.org/2000/svg" width="32" height="32" viewBox="0 0 32 32" fill="none">&#xa;<path d="M0 16C0 7.16344 7.16344 0 16 0V0C24.8366 0 32 7.16344 32 16V16C32 24.8366 24.8366 32 16 32V32C7.16344 32 0 24.8366 0 16V16Z" fill="#5282FF"/>&#xa;<path d="M17 17H19.3C19.7 17.6 20.3 18 21 18C22.1 18 23 17.1 23 16C23 14.9 22.1 14 21 14C20.3 14 19.6 14.4 19.3 15H17V11H19.3C19.7 11.6 20.3 12 21 12C22.1 12 23 11.1 23 10C23 8.9 22.1 8 21 8C20.3 8 19.6 8.4 19.3 9H17C15.9 9 15 9.9 15 11V15.3L10 12V15H7V17H10V20L15 16.7V21C15 22.1 15.9 23 17 23H19.3C19.7 23.6 20.3 24 21 24C22.1 24 23 23.1 23 22C23 20.9 22.1 20 21 20C20.3 20 19.6 20.4 19.3 21H17V17Z" fill="white"/>&#xa;</svg>