<svg xmlns="http://www.w3.org/2000/svg" width="32" height="32" viewBox="0 0 32 32" fill="none">&#xa;<path d="M0 16C0 7.16344 7.16344 0 16 0V0C24.8366 0 32 7.16344 32 16V16C32 24.8366 24.8366 32 16 32V32C7.16344 32 0 24.8366 0 16V16Z" fill="#5282FF"/>&#xa;<path fill-rule="evenodd" clip-rule="evenodd" d="M22 8C22 7.4 21.6 7 21 7H11C10.4 7 10 7.4 10 8V10H22V8ZM23 12C23 11.4 22.6 11 22 11H10C9.4 11 9 11.4 9 12V14H23V12ZM9 15H23C23.5 15 24 15.4 24 16V22C24 22.6 23.6 23 23 23H9C8.4 23 8 22.6 8 22V16C8 15.4 8.4 15 9 15ZM14 20H18C18.5 20 19 19.5 19 19C19 18.4 18.6 18 18 18H14C13.4 18 13 18.4 13 19C13 19.6 13.4 20 14 20Z" fill="white"/>&#xa;</svg>